<svg id="Layer_1" data-name="Layer 1" xmlns="http://www.w3.org/2000/svg" viewBox="0 0 44.11 44.11"><path d="M0,22.05V8.4a8.16,8.16,0,0,1,2.42-6A8.1,8.1,0,0,1,8.36,0H35.75l.52,0a8.22,8.22,0,0,1,7.61,6.39,8.47,8.47,0,0,1,.22,1.88q0,13.76,0,27.5A8.25,8.25,0,0,1,36.87,44a8.41,8.41,0,0,1-1.12.06H8.36a8.26,8.26,0,0,1-8.25-7A9.42,9.42,0,0,1,0,35.62ZM23.7,39h6.9V23.75h4.11l.56-5.14H30.61c0-1.21,0-2.39,0-3.57,0-.94.47-1.33,1.42-1.38s2.19,0,3.28-.05h.32V8.49h-.2c-1.69,0-3.38,0-5.07,0A12.36,12.36,0,0,0,28,8.76a4.88,4.88,0,0,0-4,3.67,12.09,12.09,0,0,0-.35,2.39c-.06,1.16,0,2.32,0,3.48,0,.1,0,.19,0,.32H21v5.14H23.7Z"/></svg>