<svg id="Layer_1" data-name="Layer 1" xmlns="http://www.w3.org/2000/svg" viewBox="0 0 42.63 42.64"><path d="M0,35.21V7.41a.32.32,0,0,0,0-.09A7.69,7.69,0,0,1,1.19,3.81,7.8,7.8,0,0,1,5.91.29,15.27,15.27,0,0,1,7.41,0h27.8l.47.06a7.94,7.94,0,0,1,4.72,2.4,7.61,7.61,0,0,1,2.22,5.38q0,13.47,0,26.94a7.26,7.26,0,0,1-.83,3.42,7.79,7.79,0,0,1-7.24,4.43c-8.86,0-17.71,0-26.57,0a7,7,0,0,1-2.23-.31A7.88,7.88,0,0,1,.3,36.78C.15,36.27.1,35.74,0,35.21Zm23,1A2.15,2.15,0,0,0,23,36V34.51c0-3.26,0-6.53,0-9.79A3.6,3.6,0,0,1,26.19,21a2.65,2.65,0,0,1,2.95,1.89,7.07,7.07,0,0,1,.32,2.28c0,3.31,0,6.61,0,9.92v1h6.66V36c0-3.85,0-7.7,0-11.55a11.27,11.27,0,0,0-.68-4,6.68,6.68,0,0,0-2.6-3.36A7.63,7.63,0,0,0,27.78,16a5.86,5.86,0,0,0-4.36,2.56l-.36.5H23v-2.7H16.3V36.18Zm-9.86,0V16.37H6.56V36.18ZM9.69,13.76a3.8,3.8,0,0,0,1.73-.34,3.1,3.1,0,0,0,1.91-2.94,3.12,3.12,0,0,0-1.82-3,4.12,4.12,0,0,0-2.93-.22A3.29,3.29,0,0,0,6.67,12.3,3.42,3.42,0,0,0,9.69,13.76Z"/></svg>