<svg id="Layer_1" data-name="Layer 1" xmlns="http://www.w3.org/2000/svg" viewBox="0 0 39.89 39.9"><path d="M39.88,20V28.9A10.84,10.84,0,0,1,29.49,39.84c-2.62.1-5.24,0-7.87,0H11A10.87,10.87,0,0,1,0,29q0-9.08,0-18.15a10.5,10.5,0,0,1,1.84-6A10.86,10.86,0,0,1,10.9,0h18A10.71,10.71,0,0,1,36,2.56,10.41,10.41,0,0,1,39.6,8.48a12.19,12.19,0,0,1,.27,2.41C39.9,13.92,39.88,17,39.88,20Zm-3.63-.1c0-3,0-6,0-9A7.29,7.29,0,0,0,29,3.63H10.92a6.92,6.92,0,0,0-3.39.83,7,7,0,0,0-3.89,6.4c0,6,0,12.08,0,18.11a7.26,7.26,0,0,0,7.25,7.28H28.7c.33,0,.66,0,1,0a7.23,7.23,0,0,0,6.56-7.29C36.26,25.91,36.25,22.9,36.25,19.89Z"/><path d="M29.08,19.92a9.07,9.07,0,1,1-9-9.11A9.07,9.07,0,0,1,29.08,19.92ZM14.6,19.86A5.43,5.43,0,1,0,20,14.42,5.41,5.41,0,0,0,14.6,19.86Z"/><path d="M29.93,8.17A1.79,1.79,0,0,1,31.72,10a1.81,1.81,0,1,1-3.62,0A1.78,1.78,0,0,1,29.93,8.17Z"/></svg>